{"title":"Blade: Trinity(2004)MPEG-4[DaScubaDude]","uid":15182363,"size":1332449987,"categoryP":"video","categoryS":"movies","magnet":"?xt=urn:btih:d3d1e38e49cf0ee9e06e4b305c1507ea57bbe9ab&amp;dn=Blade%3A+Trinity%282004%29MPEG-4%5BDaScubaDude%5D&amp;tr=udp%3A%2F%2Ftracker.leechers-paradise.org%3A6969&amp;tr=udp%3A%2F%2Fzer0day.ch%3A1337&amp;tr=udp%3A%2F%2Fopen.demonii.com%3A1337&amp;tr=udp%3A%2F%2Ftracker.coppersurfer.tk%3A6969&amp;tr=udp%3A%2F%2Fexodus.desync.com%3A6969","seeders":0,"leechers":0,"uploader":"dascuba","files":1,"time":1467466579,"description":"Blade: Trinity (2004)\r\nR | 1h 53min | Action, Adventure, Fantasy | 8 December 2004 (USA)\r\nBlade, now a wanted man by the FBI, must join forces with the Nightstalkers to face his most challenging enemy yet: Dracula.\r\nDirector: David S. Goyer\r\nWriters: David S. Goyer, Marv Wolfman (character) | \r\nStars: Wesley Snipes, Kris Kristofferson, Parker Posey\r\n\r\nGeneral\r\nComplete name                            : BladeTrinityExBLADE_TRINITY_EXTENDED_Title1.mp4\r\nFormat                                   : MPEG-4\r\nFormat profile                           : Base Media\r\nCodec ID                                 : isom (isom/iso2/avc1/mp41)\r\nFile size                                : 1.24 GiB\r\nDuration                                 : 2h 2mn\r\nOverall bit rate                         : 1 454 Kbps\r\nMovie name                               : BLADE_TRINITY_EXTENDED\r\nGenre                                    : Action\r\nWriting application                      : Lavf54.6.100\r\n\r\nVideo\r\nID                                       : 1\r\nFormat                                   : AVC\r\nFormat/Info                              : Advanced Video Codec\r\nFormat profile                           :   \r\nFormat settings, CABAC                   : No\r\nFormat settings, ReFrames                : 6 frames\r\nCodec ID                                 : avc1\r\nCodec ID/Info                            : Advanced Video Coding\r\nDuration                                 : 2h 2mn\r\nBit rate                                 : 1 193 Kbps\r\nWidth                                    : 720 pixels\r\nHeight                                   : 404 pixels\r\nDisplay aspect ratio                     : 16:9\r\nFrame rate mode                          : Constant\r\nFrame rate                               : 29.970 (30000/1001) fps\r\nColor space                              : YUV\r\nChroma subsampling                       : 4:2:0\r\nBit depth                                : 8 bits\r\nScan type                                : Progressive\r\nBits/(Pixel*Frame)                       : 0.137\r\nStream size                              : 1.02 GiB (82%)\r\n\r\nAudio\r\nID                                       : 2\r\nFormat                                   : AAC\r\nFormat/Info                              : Advanced Audio Codec\r\nFormat profile                           : LC\r\nCodec ID                                 : 40\r\nDuration                                 : 2h 2mn\r\nBit rate mode                            : Constant\r\nBit rate                                 : 254 Kbps\r\nChannel(s)                               : 2 channels\r\nChannel(s)_Original                      : 6 channels\r\nChannel positions                        : Front: L C R, Side: L R, LFE\r\nSampling rate                            : 44.1 KHz\r\nFrame rate                               : 43.066 fps (1024 spf)\r\nCompression mode                         : Lossy\r\nStream size                              : 222 MiB (17%)\r\nDefault                                  : Yes\r\nAlternate group                          : 1","torrent":{"xt":"urn:btih:d3d1e38e49cf0ee9e06e4b305c1507ea57bbe9ab","amp;dn":"Blade%3A+Trinity%282004%29MPEG-4%5BDaScubaDude%5D","amp;tr":["udp%3A%2F%2Ftracker.leechers-paradise.org%3A6969","udp%3A%2F%2Fzer0day.ch%3A1337","udp%3A%2F%2Fopen.demonii.com%3A1337","udp%3A%2F%2Ftracker.coppersurfer.tk%3A6969","udp%3A%2F%2Fexodus.desync.com%3A6969"],"infoHash":"d3d1e38e49cf0ee9e06e4b305c1507ea57bbe9ab","infoHashBuffer":{"type":"Buffer","data":[211,209,227,142,73,207,14,233,224,110,75,48,92,21,7,234,87,187,233,171]},"announce":[],"urlList":[]}}